<?xml version="1.0" encoding="UTF-8" standalone="no"?>
<!-- Created with Inkscape (http://www.inkscape.org/) -->

<svg
   xmlns:osb="http://www.openswatchbook.org/uri/2009/osb"
   xmlns:dc="http://purl.org/dc/elements/1.1/"
   xmlns:cc="http://creativecommons.org/ns#"
   xmlns:rdf="http://www.w3.org/1999/02/22-rdf-syntax-ns#"
   xmlns:svg="http://www.w3.org/2000/svg"
   xmlns="http://www.w3.org/2000/svg"
   xmlns:xlink="http://www.w3.org/1999/xlink"
   xmlns:sodipodi="http://sodipodi.sourceforge.net/DTD/sodipodi-0.dtd"
   xmlns:inkscape="http://www.inkscape.org/namespaces/inkscape"
   width="210mm"
   height="297mm"
   viewBox="0 0 210 297"
   version="1.1"
   id="svg8"
   inkscape:version="0.92.1 r15371"
   sodipodi:docname="logo-chave.svg">
  <defs
     id="defs2">
    <linearGradient
       id="linearGradient2154"
       osb:paint="solid">
      <stop
         style="stop-color:#000000;stop-opacity:1;"
         offset="0"
         id="stop2152" />
    </linearGradient>
    <inkscape:path-effect
       effect="simplify"
       id="path-effect1290"
       is_visible="true"
       steps="1"
       threshold="0.000851064"
       smooth_angles="360"
       helper_size="0"
       simplify_individual_paths="false"
       simplify_just_coalesce="false"
       simplifyindividualpaths="false"
       simplifyJustCoalesce="false" />
    <inkscape:path-effect
       effect="simplify"
       id="path-effect1286"
       is_visible="true"
       steps="1"
       threshold="0.000851064"
       smooth_angles="360"
       helper_size="0"
       simplify_individual_paths="false"
       simplify_just_coalesce="false"
       simplifyindividualpaths="false"
       simplifyJustCoalesce="false" />
    <inkscape:path-effect
       effect="simplify"
       id="path-effect1278"
       is_visible="true"
       steps="1"
       threshold="0.000851064"
       smooth_angles="360"
       helper_size="0"
       simplify_individual_paths="false"
       simplify_just_coalesce="false"
       simplifyindividualpaths="false"
       simplifyJustCoalesce="false" />
    <inkscape:path-effect
       effect="simplify"
       id="path-effect1274"
       is_visible="true"
       steps="1"
       threshold="0.000851064"
       smooth_angles="360"
       helper_size="0"
       simplify_individual_paths="false"
       simplify_just_coalesce="false"
       simplifyindividualpaths="false"
       simplifyJustCoalesce="false" />
    <inkscape:perspective
       sodipodi:type="inkscape:persp3d"
       inkscape:vp_x="0 : 148.5 : 1"
       inkscape:vp_y="0 : 1000 : 0"
       inkscape:vp_z="210 : 148.5 : 1"
       inkscape:persp3d-origin="105 : 99 : 1"
       id="perspective1242" />
    <inkscape:path-effect
       effect="simplify"
       id="path-effect373"
       is_visible="true"
       steps="1"
       threshold="0.000851064"
       smooth_angles="360"
       helper_size="0"
       simplify_individual_paths="false"
       simplify_just_coalesce="false"
       simplifyindividualpaths="false"
       simplifyJustCoalesce="false" />
    <inkscape:path-effect
       effect="simplify"
       id="path-effect369"
       is_visible="true"
       steps="1"
       threshold="0.000851064"
       smooth_angles="360"
       helper_size="0"
       simplify_individual_paths="false"
       simplify_just_coalesce="false"
       simplifyindividualpaths="false"
       simplifyJustCoalesce="false" />
    <inkscape:path-effect
       effect="simplify"
       id="path-effect365"
       is_visible="true"
       steps="1"
       threshold="0.000851064"
       smooth_angles="360"
       helper_size="0"
       simplify_individual_paths="false"
       simplify_just_coalesce="false"
       simplifyindividualpaths="false"
       simplifyJustCoalesce="false" />
    <inkscape:path-effect
       effect="simplify"
       id="path-effect361"
       is_visible="true"
       steps="1"
       threshold="0.000851064"
       smooth_angles="360"
       helper_size="0"
       simplify_individual_paths="false"
       simplify_just_coalesce="false"
       simplifyindividualpaths="false"
       simplifyJustCoalesce="false" />
    <clipPath
       clipPathUnits="userSpaceOnUse"
       id="clipPath181">
      <use
         x="0"
         y="0"
         xlink:href="#g177"
         id="use183"
         width="100%"
         height="100%"
         transform="translate(180.27086,89.807253)" />
    </clipPath>
    <filter
       style="color-interpolation-filters:sRGB"
       x="-0.25"
       width="1.5"
       y="-0.25"
       height="1.5"
       inkscape:menu="Non realistic 3D shaders"
       inkscape:menu-tooltip="Embossed chrome effect"
       inkscape:label="Chrome Emboss"
       id="filter4596">
      <feGaussianBlur
         in="SourceGraphic"
         result="result8"
         stdDeviation="5"
         id="feGaussianBlur4576" />
      <feComposite
         result="result18"
         operator="xor"
         in2="result8"
         id="feComposite4578" />
      <feComposite
         in2="result18"
         result="result16"
         operator="arithmetic"
         k1="1"
         k3="0.5"
         id="feComposite4580" />
      <feComposite
         in="result16"
         operator="xor"
         result="result6"
         in2="result8"
         id="feComposite4582" />
      <feOffset
         in="result6"
         result="result17"
         id="feOffset4584" />
      <feDisplacementMap
         result="result4"
         scale="100"
         yChannelSelector="A"
         xChannelSelector="A"
         in="result17"
         in2="result16"
         id="feDisplacementMap4586" />
      <feComposite
         k3="1"
         in="result4"
         operator="arithmetic"
         result="result2"
         in2="result4"
         id="feComposite4588" />
      <feComposite
         operator="in"
         in="result6"
         result="fbSourceGraphic"
         in2="result2"
         id="feComposite4590" />
      <feComposite
         result="result14"
         operator="over"
         in2="fbSourceGraphic"
         id="feComposite4592" />
      <feComposite
         in="result14"
         operator="in"
         in2="result2"
         result="result15"
         id="feComposite4594" />
    </filter>
  </defs>
  <sodipodi:namedview
     id="base"
     pagecolor="#ffffff"
     bordercolor="#666666"
     borderopacity="1.0"
     inkscape:pageopacity="0.0"
     inkscape:pageshadow="2"
     inkscape:zoom="0.7"
     inkscape:cx="406.74901"
     inkscape:cy="721.44982"
     inkscape:document-units="mm"
     inkscape:current-layer="layer1"
     showgrid="false"
     inkscape:window-width="1366"
     inkscape:window-height="715"
     inkscape:window-x="0"
     inkscape:window-y="0"
     inkscape:window-maximized="1" />
  <metadata
     id="metadata5">
    <rdf:RDF>
      <cc:Work
         rdf:about="">
        <dc:format>image/svg+xml</dc:format>
        <dc:type
           rdf:resource="http://purl.org/dc/dcmitype/StillImage" />
        <dc:title />
      </cc:Work>
    </rdf:RDF>
  </metadata>
  <g
     inkscape:label="Camada 1"
     inkscape:groupmode="layer"
     id="layer1">
    <ellipse
       style="fill:#454545;fill-opacity:0.27058824;stroke:none;stroke-width:1.16627669;stroke-linecap:round;stroke-linejoin:bevel;stroke-miterlimit:4;stroke-dasharray:none;stroke-opacity:1;paint-order:stroke fill markers;filter:url(#filter4596)"
       id="path4526"
       cx="110.36905"
       cy="106.5"
       rx="88.446434"
       ry="85.044647"
       inkscape:export-xdpi="90"
       inkscape:export-ydpi="90" />
    <path
       style="fill:#454545;fill-opacity:0.27058824;stroke-width:0.89902788"
       d="m 101.36439,44.441263 c -20.927405,1.91e-4 -37.438655,13.817076 -43.125835,36.736947 -0.20183,2.751354 -2.63819,6.776715 -2.46025,10.258687 0.0816,1.596961 -3.774628,1.243272 -5.650246,1.717259 -12.231704,5.306303 -15.428149,23.190354 -5.521484,32.207044 6.213066,6.42874 15.32093,7.3887 23.779639,6.32104 27.78466,-1.1425 55.662596,-0.34594 83.327796,-3.02026 11.41709,-1.92349 20.49095,-13.02273 21.63866,-24.37109 1.47067,-14.664913 -11.66386,-26.71612 -25.56055,-28.164079 -1.36323,-0.161538 -5.09161,0.781225 -5.0808,-0.322834 0.0586,-5.982159 -2.34835,-10.171213 -5.4485,-13.747479 -7.55439,-12.005535 -22.00814,-18.128485 -35.89843,-17.615235 z m 1.53515,3.962891 c 16.25231,-0.459786 33.07458,12.462098 36.59724,28.482832 0.0647,2.193716 -1.70201,5.025922 -0.0136,4.379444 3.74847,-1.435259 2.31116,-0.973003 3.74847,-1.435259 12.36975,-1.489959 25.79787,9.944875 25.05068,22.703849 -0.077,11.47015 -11.0474,20.86742 -22.34766,20.01758 -29.56867,1.6067 -58.737925,4.88664 -88.328745,3.43031 -9.908172,-1.99727 -20.814431,-12.92061 -9.117702,-25.41212 3.027646,-4.50424 7.118652,-4.221922 11.973782,-5.455283 -0.32772,-10.699795 3.3161,-23.670646 10.640631,-32.160572 7.59293,-9.449154 19.780948,-14.6219 31.796874,-14.550781 z"
       id="path142-6-0"
       inkscape:connector-curvature="0"
       sodipodi:nodetypes="ccsccccccsccccsccccccccc"
       inkscape:export-xdpi="90"
       inkscape:export-ydpi="90" />
    <path
       style="fill:#454545;fill-opacity:0.33850935;stroke-width:0.89902782"
       d="m 108.19124,49.991655 c -20.927436,1.91e-4 -37.438686,13.817076 -43.125866,36.736947 -0.20183,2.751354 -2.63819,6.776715 -2.46025,10.258687 0.0816,1.596961 -3.774628,1.243272 -5.650246,1.717259 -12.231704,5.306302 -15.428149,23.190352 -5.521484,32.207042 6.213066,6.42874 15.32093,7.3887 23.77964,6.32104 27.784666,-1.1425 55.662626,-0.34594 83.327826,-3.02026 11.41709,-1.92349 20.49095,-13.02273 21.63866,-24.37109 1.47067,-14.664911 -11.66386,-26.716118 -25.56055,-28.164077 -1.36323,-0.161538 -5.09161,0.781225 -5.0808,-0.322834 0.0586,-5.982159 -2.34835,-10.171213 -5.4485,-13.747479 -7.55439,-12.005535 -22.00814,-18.128485 -35.89843,-17.615235 z m 1.53515,3.962891 c 16.25231,-0.459786 33.07458,12.462098 36.59724,28.482832 0.0647,2.193716 -1.70201,5.025922 -0.0136,4.379444 3.74847,-1.435259 2.31116,-0.973003 3.74847,-1.435259 12.36975,-1.489959 25.79787,9.944875 25.05068,22.703857 -0.077,11.47014 -11.0474,20.86741 -22.34766,20.01757 -29.56867,1.6067 -58.737956,4.88664 -88.328776,3.43031 -9.908172,-1.99727 -20.814431,-12.92061 -9.117702,-25.41211 3.027646,-4.50425 7.118652,-4.22193 11.973782,-5.45529 -0.32772,-10.699796 3.3161,-23.670647 10.64063,-32.160573 7.59293,-9.449154 19.78095,-14.6219 31.796906,-14.550781 z"
       id="path142-6"
       inkscape:connector-curvature="0"
       sodipodi:nodetypes="ccsccccccsccccsccccccccc"
       inkscape:export-xdpi="90"
       inkscape:export-ydpi="90" />
    <g
       id="g177"
       inkscape:label="Clip"
       transform="rotate(-27.810809,-156.31215,427.93589)"
       inkscape:export-xdpi="90"
       inkscape:export-ydpi="90" />
    <path
       style="fill:#000000;stroke-width:0.83568656"
       d="m 95.458291,191.14492 c -10.839392,-2.26948 -30.150555,-11.11393 -30.150555,-13.80887 0,-0.57593 1.113433,-2.08846 2.474295,-3.36118 l 2.474295,-2.31403 9.578734,4.63321 c 24.75155,11.97227 53.10519,11.38673 75.36329,-1.55634 6.29418,-3.66006 10.62913,-2.43638 10.76276,2.29066 -1.06757,4.37281 -15.52838,10.59554 -27.90589,13.19037 -18.68006,3.9161 -35.82823,1.76648 -35.82823,1.76648 -0.51599,-0.50369 -0.22399,-0.59579 0.36232,-1.1094 1.67789,-0.0679 18.26913,2.52592 34.26753,-1.94048 13.02117,-3.63523 26.48336,-9.04246 26.552,-10.87384 0.14995,-4.00073 -2.01658,-5.35223 -7.37349,-2.14713 -22.42617,13.41786 -52.77607,13.83741 -78.319151,1.08267 l -7.468461,-3.72932 -1.766017,1.72393 c -3.711709,3.62324 21.681663,15.85032 32.918189,15.85032 0.34775,0 1.07591,0.009 1.1894,0.0339 0.26656,0.0585 -0.15604,0.78384 -0.36232,1.1094 -0.6884,-0.18217 -1.03943,0.18899 -6.768699,-0.8403 z"
       id="path160"
       inkscape:connector-curvature="0"
       sodipodi:nodetypes="csccsscsccssssccsscc"
       inkscape:export-xdpi="90"
       inkscape:export-ydpi="90" />
    <path
       style="fill:#000064;fill-opacity:1;stroke-width:3.15850043"
       d="m 696.01367,557.70312 c -4.03294,-0.0369 -8.29767,0.49617 -12.7539,1.69727 -35.72652,9.62948 -36.16439,64.15872 -0.59571,74.21094 14.48962,4.09497 14.72949,4.07091 29.59766,-2.95508 40.09152,-18.94545 22.73706,-72.59598 -16.24805,-72.95313 z m 1.75335,48.96011 c 6.35024,-0.15349 9.56799,-41.76315 15.80134,-37.65151 20.97876,13.83798 21.12071,40.9576 0.28516,54.66406 -33.78471,22.22487 -71.53578,-21.50876 -42.78907,-49.57031 7.2943,-7.12048 18.53799,32.7551 26.70257,32.55776 z"
       transform="scale(0.26458333)"
       id="path154"
       inkscape:connector-curvature="0"
       sodipodi:nodetypes="cssccssccs"
       inkscape:export-xdpi="90"
       inkscape:export-ydpi="90" />
    <path
       style="fill:#006400;fill-opacity:1;stroke-width:3.15850043"
       d="m 185.85742,552.17383 c -9.45033,-0.0853 -19.11188,3.26305 -27.25781,11.21484 -19.833,19.36033 -13.27074,51.62938 12.83594,63.11914 19.32197,8.50375 41.97632,-0.13066 51.44336,-19.60547 13.61715,-28.01214 -10.8941,-54.49275 -37.02149,-54.72851 z m 0.082,5.23633 c 1.5777,0.0547 3.25988,0.1666 5.10352,0.34375 0.17512,0.0168 0.3436,0.0473 0.51758,0.0664 2.78161,0.43625 -14.69189,35.84844 -14.69189,35.84844 21.91741,8.93941 50.75224,5.42533 33.46532,21.27852 -10.74299,9.85198 -29.61918,11.53449 -42.29296,3.76953 -30.41644,-18.63564 -12.43858,-60.96737 17.89843,-61.30664 z"
       transform="scale(0.26458333)"
       id="path146"
       inkscape:connector-curvature="0"
       sodipodi:nodetypes="sssssccccscc"
       inkscape:export-xdpi="90"
       inkscape:export-ydpi="90" />
    <path
       style="fill:#000000;stroke-width:3.15850043"
       d="M 330.00391 96.173828 C 322.54571 96.508322 309.73664 102.26325 286.66797 113.65625 C 249.54697 131.98932 215.5246 161.35056 186.78516 196.35742 C 202.25298 178.06847 219.66968 161.89384 238.75977 148.64648 C 272.22185 125.42585 320.37497 101.27817 331.66211 101.60742 C 332.41459 101.62937 333.00261 101.76076 333.41211 102.00781 C 344.697 108.81604 335.98085 120.72579 312.01562 131.24414 C 178.48922 189.84898 102.83897 338.2883 137.74219 473.20117 C 139.55426 480.20545 140.8184 485.26627 141.57227 489.04688 C 142.26769 494.938 141.87513 498.48211 140.31445 500.94531 C 139.91492 501.32097 139.4715 501.68828 138.96094 502.06836 C 135.98994 504.28011 133.63524 505.80924 131.64844 506.4082 C 129.33467 506.81842 127.41571 506.09763 125.63086 504.03906 C 122.99816 500.38161 120.59256 492.69154 116.95898 479.44336 C 94.531952 397.6734 115.62232 299.40432 165.41797 224.79102 C 98.022158 322.89335 70.611969 450.02478 122.50391 511.06055 C 125.47483 514.55498 127.68008 514.34699 135.55273 509.83594 C 150.24556 501.41689 150.67123 499.69227 144.17773 474.87695 C 108.66754 339.17246 179.61171 196.6708 312.09766 137.58594 L 343.25391 123.69141 L 341.23438 111.20898 C 339.56986 100.92525 337.4621 95.839334 330.00391 96.173828 z "
       transform="scale(0.26458333)"
       id="path134"
       inkscape:export-xdpi="90"
       inkscape:export-ydpi="90" />
    <path
       style="fill:#000000;stroke-width:3.15850043"
       d="M 544.2168 96.376953 C 536.86053 96.267048 534.47765 101.3482 532.98438 111.20898 L 531.09375 123.69141 L 568.78516 141.52734 C 697.21052 202.30253 765.43758 343.75996 730.00977 475.79688 C 725.94262 490.95486 723.09628 503.76016 723.68555 504.25195 C 724.27481 504.74375 729.07291 507.38102 734.34766 510.11328 C 748.7774 517.58775 750.97493 516.62772 756.48242 500.44141 C 805.13496 357.45342 734.2626 190.00554 594.33398 117.3418 C 567.27778 103.29173 552.5539 96.501512 544.2168 96.376953 z M 543.98633 102.87305 C 550.06334 102.65715 562.64893 107.65492 585.86523 119.08203 C 724.57185 187.35369 795.58297 345.83393 753.27539 492.70508 C 750.67972 501.71593 747.51564 509.0463 746.24609 508.99414 C 744.3504 508.91621 733.53456 503.69424 730.29883 501.29492 C 729.82968 500.94705 732.56938 488.1639 736.38867 472.88867 C 771.09025 334.0994 691.62109 183.24102 554.60547 127.80469 C 537.93469 121.05972 535.11194 116.85332 539.5957 105.44727 C 540.22795 103.83891 541.60837 102.95753 543.98633 102.87305 z "
       transform="scale(0.26458333)"
       id="path130"
       inkscape:export-xdpi="90"
       inkscape:export-ydpi="90" />
    <path
       style="fill:#640000;fill-opacity:1;stroke-width:3.15850043"
       d="m 438.55273,54.521484 c -4.3639,-0.04776 -8.97492,0.666643 -13.76171,2.294922 -31.93645,10.863515 -37.26312,52.258964 -8.9336,69.421874 10.84464,6.56998 30.58193,6.64097 41.83789,0.15039 35.55296,-20.50111 16.39211,-71.478297 -19.14258,-71.867186 z m -1.50976,5.197266 c 36.30213,0 46.11359,50.57976 12.47265,64.30078 -12.80862,5.22426 7.67221,-30.489316 -4.93414,-35.845146 -32.9517,-13.99957 -43.3648,-28.455634 -7.53851,-28.455634 z"
       transform="scale(0.26458333)"
       id="path124"
       inkscape:connector-curvature="0"
       sodipodi:nodetypes="sscssscss"
       inkscape:export-xdpi="90"
       inkscape:export-ydpi="90" />
    <path
       style="fill:#000000;stroke-width:0.83568656"
       d=""
       id="path91"
       inkscape:connector-curvature="0"
       inkscape:export-xdpi="90"
       inkscape:export-ydpi="90" />
    <path
       style="fill:#000000;stroke-width:0.83568656"
       d=""
       id="path89"
       inkscape:connector-curvature="0"
       inkscape:export-xdpi="90"
       inkscape:export-ydpi="90" />
    <path
       style="fill:#000000;stroke-width:0.83568656"
       d=""
       id="path87"
       inkscape:connector-curvature="0"
       inkscape:export-xdpi="90"
       inkscape:export-ydpi="90" />
    <path
       style="fill:none;stroke:none;stroke-width:0.1;stroke-miterlimit:4;stroke-dasharray:none;stroke-opacity:0.8993711"
       id="path95"
       d="m 50.76328,150.05638 c -0.04715,1.58498 -0.164488,3.16602 -0.32336,4.74348 -0.244255,1.95585 -0.48451,3.91209 -0.750554,5.86509 -0.173649,1.01332 -0.455885,2.00617 -0.792096,2.97681 -0.295522,0.74029 -0.636802,1.46083 -0.927881,2.20295 -0.203012,0.64906 -0.400825,1.29993 -0.734385,1.89569 -0.141529,0.21615 -0.06975,0.11265 -0.214551,0.31106 0,0 -2.579164,1.08738 -2.579164,1.08738 v 0 c 0.173101,-0.16159 0.09112,-0.0698 0.241287,-0.27928 0.41466,-0.54233 0.602017,-1.21383 0.79669,-1.85847 0.276508,-0.74332 0.603295,-1.46637 0.916548,-2.19476 0.379693,-0.95889 0.670547,-1.95429 0.89045,-2.96144 0.316629,-1.95441 0.5881,-3.91462 0.814308,-5.88173 0.146643,-1.53819 0.262536,-3.08939 0.16591,-4.6346 0,0 2.496798,-1.27218 2.496798,-1.27218 z"
       inkscape:connector-curvature="0"
       inkscape:export-xdpi="90"
       inkscape:export-ydpi="90" />
    <path
       style="fill:none;stroke:#640000;stroke-width:4;stroke-linecap:butt;stroke-linejoin:miter;stroke-miterlimit:4;stroke-dasharray:none;stroke-opacity:1"
       d="M 129.04961,100.08182 C 126.38429,92.351727 112.35328,92.579002 106.68051,90.963864 97.075127,88.229041 93.456903,62.490566 93.456903,62.490566"
       id="path1223-7"
       inkscape:connector-curvature="0"
       sodipodi:nodetypes="csc"
       inkscape:export-xdpi="90"
       inkscape:export-ydpi="90" />
    <path
       style="color:#000000;font-style:normal;font-variant:normal;font-weight:normal;font-stretch:normal;font-size:medium;line-height:normal;font-family:sans-serif;font-variant-ligatures:normal;font-variant-position:normal;font-variant-caps:normal;font-variant-numeric:normal;font-variant-alternates:normal;font-feature-settings:normal;text-indent:0;text-align:start;text-decoration:none;text-decoration-line:none;text-decoration-style:solid;text-decoration-color:#000000;letter-spacing:normal;word-spacing:normal;text-transform:none;writing-mode:lr-tb;direction:ltr;text-orientation:mixed;dominant-baseline:auto;baseline-shift:baseline;text-anchor:start;white-space:normal;shape-padding:0;clip-rule:nonzero;display:inline;overflow:visible;visibility:visible;opacity:1;isolation:auto;mix-blend-mode:normal;color-interpolation:sRGB;color-interpolation-filters:linearRGB;solid-color:#000000;solid-opacity:1;vector-effect:none;fill:#000000;fill-opacity:1;fill-rule:nonzero;stroke:none;stroke-width:1.51497877;stroke-linecap:round;stroke-linejoin:bevel;stroke-miterlimit:4;stroke-dasharray:none;stroke-dashoffset:0;stroke-opacity:1;paint-order:stroke fill markers;color-rendering:auto;image-rendering:auto;shape-rendering:auto;text-rendering:auto;enable-background:accumulate"
       d="m 160.37906,100.82457 c 0.58732,0.96102 1.01878,1.43212 1.6649,3.22025 0.53291,1.4748 0.92377,3.1064 0.84605,4.71178 -0.0777,1.60539 -0.65788,3.20817 -2.03767,4.42715 -2.19887,1.94266 -2.51703,4.57996 -2.27019,6.83832 0.19413,1.77616 0.61389,2.61239 0.83908,3.15673 l 21.06071,-12.46718 z"
       id="path1294-5-2"
       inkscape:connector-curvature="0"
       inkscape:export-xdpi="90"
       inkscape:export-ydpi="90" />
    <path
       style="fill:none;stroke:#000064;stroke-width:4;stroke-linecap:butt;stroke-linejoin:miter;stroke-miterlimit:4;stroke-dasharray:none;stroke-opacity:1"
       d="m 141.72111,120.51295 c -3.19985,8.93282 -26.48223,6.57442 -32.37829,6.73434 -12.144427,0.32939 -13.337558,10.12869 -13.337558,10.12869"
       id="path1223-7-1"
       inkscape:connector-curvature="0"
       sodipodi:nodetypes="csc"
       inkscape:export-xdpi="90"
       inkscape:export-ydpi="90" />
    <path
       style="color:#000000;font-style:normal;font-variant:normal;font-weight:normal;font-stretch:normal;font-size:medium;line-height:normal;font-family:sans-serif;font-variant-ligatures:normal;font-variant-position:normal;font-variant-caps:normal;font-variant-numeric:normal;font-variant-alternates:normal;font-feature-settings:normal;text-indent:0;text-align:start;text-decoration:none;text-decoration-line:none;text-decoration-style:solid;text-decoration-color:#000000;letter-spacing:normal;word-spacing:normal;text-transform:none;writing-mode:lr-tb;direction:ltr;text-orientation:mixed;dominant-baseline:auto;baseline-shift:baseline;text-anchor:start;white-space:normal;shape-padding:0;clip-rule:nonzero;display:inline;overflow:visible;visibility:visible;opacity:1;isolation:auto;mix-blend-mode:normal;color-interpolation:sRGB;color-interpolation-filters:linearRGB;solid-color:#000000;solid-opacity:1;vector-effect:none;fill:#000000;fill-opacity:1;fill-rule:nonzero;stroke:none;stroke-width:1.3976469;stroke-linecap:round;stroke-linejoin:bevel;stroke-miterlimit:4;stroke-dasharray:none;stroke-dashoffset:0;stroke-opacity:1;paint-order:stroke fill markers;color-rendering:auto;image-rendering:auto;shape-rendering:auto;text-rendering:auto;enable-background:accumulate"
       d="m 208.57778,129.00923 c -1.08501,0.11679 -1.66906,0.28781 -3.52556,0.15089 -1.5312,-0.11293 -3.15298,-0.39542 -4.58071,-1.04 -1.42769,-0.6446 -2.6705,-1.68659 -3.27464,-3.22329 -0.96277,-2.44899 -3.23905,-3.65892 -5.37687,-4.28321 -1.68144,-0.49098 -2.59241,-0.46178 -3.16789,-0.48088 l 3.65349,21.22704 z"
       id="path1294-7"
       inkscape:connector-curvature="0"
       inkscape:transform-center-x="6.4591289"
       inkscape:transform-center-y="2.7791"
       inkscape:export-xdpi="90"
       inkscape:export-ydpi="90" />
    <path
       style="color:#000000;font-style:normal;font-variant:normal;font-weight:normal;font-stretch:normal;font-size:medium;line-height:normal;font-family:sans-serif;font-variant-ligatures:normal;font-variant-position:normal;font-variant-caps:normal;font-variant-numeric:normal;font-variant-alternates:normal;font-feature-settings:normal;text-indent:0;text-align:start;text-decoration:none;text-decoration-line:none;text-decoration-style:solid;text-decoration-color:#000000;letter-spacing:normal;word-spacing:normal;text-transform:none;writing-mode:lr-tb;direction:ltr;text-orientation:mixed;dominant-baseline:auto;baseline-shift:baseline;text-anchor:start;white-space:normal;shape-padding:0;clip-rule:nonzero;display:inline;overflow:visible;visibility:visible;opacity:1;isolation:auto;mix-blend-mode:normal;color-interpolation:sRGB;color-interpolation-filters:linearRGB;solid-color:#000000;solid-opacity:1;vector-effect:none;fill:#000000;fill-opacity:1;fill-rule:nonzero;stroke:none;stroke-width:1.3976469;stroke-linecap:round;stroke-linejoin:bevel;stroke-miterlimit:4;stroke-dasharray:none;stroke-dashoffset:0;stroke-opacity:1;paint-order:stroke fill markers;color-rendering:auto;image-rendering:auto;shape-rendering:auto;text-rendering:auto;enable-background:accumulate"
       d="m 68.382392,187.78084 c 0.201582,-1.0725 0.206546,-1.68105 0.873862,-3.41887 0.55039,-1.43333 1.289273,-2.90438 2.318765,-4.08508 1.029499,-1.18066 2.38605,-2.06953 4.03175,-2.20406 2.622699,-0.21434 4.438536,-2.04415 5.653704,-3.91053 0.955718,-1.46796 1.190887,-2.34854 1.375394,-2.89395 l -21.377559,-2.63347 z"
       id="path1294-7-9"
       inkscape:connector-curvature="0"
       inkscape:transform-center-x="-1.5550316"
       inkscape:transform-center-y="-6.5196"
       inkscape:export-xdpi="90"
       inkscape:export-ydpi="90" />
    <path
       style="color:#000000;font-style:normal;font-variant:normal;font-weight:normal;font-stretch:normal;font-size:medium;line-height:normal;font-family:sans-serif;font-variant-ligatures:normal;font-variant-position:normal;font-variant-caps:normal;font-variant-numeric:normal;font-variant-alternates:normal;font-feature-settings:normal;text-indent:0;text-align:start;text-decoration:none;text-decoration-line:none;text-decoration-style:solid;text-decoration-color:#000000;letter-spacing:normal;word-spacing:normal;text-transform:none;writing-mode:lr-tb;direction:ltr;text-orientation:mixed;dominant-baseline:auto;baseline-shift:baseline;text-anchor:start;white-space:normal;shape-padding:0;clip-rule:nonzero;display:inline;overflow:visible;visibility:visible;opacity:1;isolation:auto;mix-blend-mode:normal;color-interpolation:sRGB;color-interpolation-filters:linearRGB;solid-color:#000000;solid-opacity:1;vector-effect:none;fill:#000000;fill-opacity:1;fill-rule:nonzero;stroke:none;stroke-width:1.3976469;stroke-linecap:round;stroke-linejoin:bevel;stroke-miterlimit:4;stroke-dasharray:none;stroke-dashoffset:0;stroke-opacity:1;paint-order:stroke fill markers;color-rendering:auto;image-rendering:auto;shape-rendering:auto;text-rendering:auto;enable-background:accumulate"
       d="m 76.029571,22.397923 c 0.789146,0.753738 1.296583,1.089704 2.389537,2.596622 0.901436,1.24287 1.73175,2.664335 2.160197,4.171093 0.428421,1.506748 0.433912,3.128567 -0.350602,4.581482 -1.2503,2.315436 -0.706445,4.835299 0.195568,6.871563 0.709483,1.60154 1.319439,2.278797 1.676061,2.730852 L 95.963626,26.864863 Z"
       id="path1294-7-9-3"
       inkscape:connector-curvature="0"
       inkscape:transform-center-x="-8.5031531"
       inkscape:transform-center-y="7.126337"
       inkscape:export-xdpi="90"
       inkscape:export-ydpi="90" />
    <g
       id="g2297"
       transform="matrix(0.85548809,0,0,1.1304497,-104.71404,19.251238)"
       style="fill:#000000;fill-opacity:1"
       inkscape:export-xdpi="90"
       inkscape:export-ydpi="90">
      <path
         style="fill:#000000;fill-opacity:1;stroke-width:0.3045229;stroke:none;stroke-opacity:1"
         d="m 228.02601,96.326673 c -4.29058,-1.159097 -6.77585,-3.765884 -6.77585,-7.107148 v -1.415727 l -2.19057,-0.0026 c -5.24118,-0.0062 -8.76224,-2.660068 -8.77304,-6.612416 -0.0107,-3.742464 3.67518,-6.440849 8.77304,-6.423419 l 2.19057,0.0075 v -1.388769 c 0,-8.032876 14.98235,-10.321425 19.29346,-2.947072 1.46319,2.502833 0.77212,6.213877 -1.49662,8.036913 -1.01791,0.817935 -0.21137,0.777007 1.74518,-0.08856 l 1.55327,-0.687166 1.06469,0.753312 c 0.67539,0.477851 1.12045,0.637231 1.21717,0.435861 0.99954,-2.081153 5.36315,-2.047923 5.36315,0.04084 0,0.366367 4.06261,0.408902 39.05542,0.408902 38.90802,0 39.05583,0.002 39.1674,0.534224 0.10772,0.513486 0.1623,0.507103 1.40747,-0.16441 1.72865,-0.932245 3.49497,-0.735033 4.51796,0.504438 1.86356,2.2579 -1.80822,4.735143 -4.5867,3.094497 -1.05866,-0.625122 -1.40196,-0.657517 -1.40196,-0.132291 0,0.326319 -0.6231,0.396875 -3.50493,0.396875 h -3.50491 c -12.37689,0.08784 -9.86061,0.07765 -24.39871,-0.08897 -8.42701,-0.09659 -22.38278,-0.175608 -31.01283,-0.175608 H 250.0377 l -0.24033,0.595313 c -0.77564,1.921359 -3.56488,2.140032 -4.77585,0.37442 l -0.51443,-0.750059 -1.09727,0.696979 -1.09726,0.696979 -1.67851,-0.674524 c -2.17372,-0.873534 -2.46842,-0.850621 -1.39901,0.108777 6.27166,5.626559 -1.99909,14.460955 -11.20903,11.972907 z m 5.6696,-2.666318 c 5.37277,-1.842534 5.47106,-7.247967 0.16521,-9.08545 -1.09322,-0.3786 -1.74542,-0.772227 -1.74542,-1.053423 0,-0.694024 -0.5428,-0.786099 -1.23421,-0.209361 -1.24331,1.037096 -3.44497,0.52619 -3.97482,-0.922365 -0.93457,-2.555124 1.50366,-4.607428 3.76635,-3.170181 1.2644,0.803154 1.44268,0.805775 1.44268,0.02121 0,-0.497457 0.32239,-0.718461 1.57484,-1.079534 6.0118,-1.733183 5.34919,-8.171507 -0.97234,-9.447845 -5.38014,-1.086266 -10.23421,4.112528 -6.96064,7.454985 0.97745,0.998018 0.96937,1.018706 -0.84148,2.155916 l -1.54707,0.971552 -1.06875,-0.753664 c -2.01755,-1.422716 -4.82567,-1.364136 -6.82123,0.142297 -4.48176,3.38325 1.89736,8.528168 6.66002,5.371461 l 1.25192,-0.829782 1.46543,1.032042 c 0.80597,0.567623 1.52118,1.052461 1.58931,1.077417 0.0681,0.02495 -0.28429,0.571198 -0.78322,1.213871 -3.16758,4.08026 2.42793,9.033197 8.03342,7.110854 z"
         id="path2299"
         inkscape:connector-curvature="0"
         sodipodi:nodetypes="sscccccscsscccssccccssccsccccccsssssscccscsccccssccccss" />
    </g>
    <path
       style="fill:#333333;fill-opacity:1;stroke-width:0.89902776"
       d="m 114.87891,55.503906 c -20.927404,1.91e-4 -37.438652,13.817076 -43.125828,36.736946 -0.201828,2.751355 -2.638197,6.776714 -2.460256,10.258688 0.08161,1.59696 -3.774625,1.24327 -5.650243,1.71726 -12.231704,5.30629 -15.428149,23.19034 -5.521484,32.20703 6.213066,6.42874 15.320926,7.3887 23.779644,6.32104 27.784647,-1.1425 55.662587,-0.34594 83.327787,-3.02026 11.41709,-1.92349 20.49095,-13.02273 21.63866,-24.37109 1.47067,-14.6649 -11.66386,-26.716108 -25.56055,-28.164067 -1.36323,-0.161538 -5.09161,0.781226 -5.0808,-0.322834 0.0586,-5.982158 -2.34835,-10.171212 -5.4485,-13.747478 C 143.22295,61.113606 128.7692,54.990656 114.87891,55.503906 Z m 1.53515,3.962891 c 16.25231,-0.459786 33.07458,12.462098 36.59724,28.482832 0.0647,2.193714 -1.70201,5.02592 -0.0136,4.379443 3.74847,-1.435259 2.31116,-0.973003 3.74847,-1.435259 12.36975,-1.489957 25.79787,9.944877 25.05068,22.703847 -0.077,11.47014 -11.0474,20.86741 -22.34766,20.01757 -29.56867,1.6067 -58.73792,4.88664 -88.328743,3.43031 -9.90817,-1.99727 -20.814429,-12.92061 -9.1177,-25.41211 3.027646,-4.50425 7.118655,-4.22193 11.973787,-5.45528 C 73.64881,95.478356 77.29263,82.507505 84.617158,74.017578 92.210092,64.568424 104.39811,59.395678 116.41403,59.466797 Z"
       id="path142"
       inkscape:connector-curvature="0"
       sodipodi:nodetypes="ccsccccccsccccsccccccccc"
       inkscape:export-xdpi="90"
       inkscape:export-ydpi="90" />
    <path
       style="color:#000000;font-style:normal;font-variant:normal;font-weight:normal;font-stretch:normal;font-size:medium;line-height:normal;font-family:sans-serif;font-variant-ligatures:normal;font-variant-position:normal;font-variant-caps:normal;font-variant-numeric:normal;font-variant-alternates:normal;font-feature-settings:normal;text-indent:0;text-align:start;text-decoration:none;text-decoration-line:none;text-decoration-style:solid;text-decoration-color:#000000;letter-spacing:normal;word-spacing:normal;text-transform:none;writing-mode:lr-tb;direction:ltr;text-orientation:mixed;dominant-baseline:auto;baseline-shift:baseline;text-anchor:start;white-space:normal;shape-padding:0;clip-rule:nonzero;display:inline;overflow:visible;visibility:visible;opacity:1;isolation:auto;mix-blend-mode:normal;color-interpolation:sRGB;color-interpolation-filters:linearRGB;solid-color:#000000;solid-opacity:1;vector-effect:none;fill:#640000;fill-opacity:1;fill-rule:nonzero;stroke:#640000;stroke-width:1;stroke-linecap:round;stroke-linejoin:bevel;stroke-miterlimit:4;stroke-dasharray:none;stroke-dashoffset:0;stroke-opacity:1;paint-order:stroke fill markers;color-rendering:auto;image-rendering:auto;shape-rendering:auto;text-rendering:auto;enable-background:accumulate"
       d="m 134.36001,95.323818 c -0.41801,0.625606 -0.58232,1.015252 -1.48653,1.921077 -0.74578,0.747104 -1.62709,1.458764 -2.6251,1.891764 -0.99801,0.43299 -2.13666,0.57479 -3.26831,0.14012 -1.80347,-0.69274 -3.49693,-0.0915 -4.80004,0.723491 -1.02489,0.64101 -1.41449,1.1326 -1.68167,1.42482 l 13.54094,8.46261 z"
       id="path1294"
       inkscape:connector-curvature="0"
       inkscape:export-xdpi="90"
       inkscape:export-ydpi="90" />
    <path
       style="color:#000000;font-style:normal;font-variant:normal;font-weight:normal;font-stretch:normal;font-size:medium;line-height:normal;font-family:sans-serif;font-variant-ligatures:normal;font-variant-position:normal;font-variant-caps:normal;font-variant-numeric:normal;font-variant-alternates:normal;font-feature-settings:normal;text-indent:0;text-align:start;text-decoration:none;text-decoration-line:none;text-decoration-style:solid;text-decoration-color:#000000;letter-spacing:normal;word-spacing:normal;text-transform:none;writing-mode:lr-tb;direction:ltr;text-orientation:mixed;dominant-baseline:auto;baseline-shift:baseline;text-anchor:start;white-space:normal;shape-padding:0;clip-rule:nonzero;display:inline;overflow:visible;visibility:visible;opacity:1;isolation:auto;mix-blend-mode:normal;color-interpolation:sRGB;color-interpolation-filters:linearRGB;solid-color:#000000;solid-opacity:1;vector-effect:none;fill:#000064;fill-opacity:1;fill-rule:nonzero;stroke:none;stroke-width:1;stroke-linecap:round;stroke-linejoin:bevel;stroke-miterlimit:4;stroke-dasharray:none;stroke-dashoffset:0;stroke-opacity:1;paint-order:stroke fill markers;color-rendering:auto;image-rendering:auto;shape-rendering:auto;text-rendering:auto;enable-background:accumulate"
       d="m 146.41148,126.51548 c -0.33491,-0.67376 -0.44822,-1.08117 -1.22966,-2.09481 -0.6445,-0.83604 -1.42795,-1.6542 -2.36267,-2.21083 -0.93471,-0.55662 -2.04601,-0.84234 -3.22382,-0.5554 -1.87703,0.45732 -3.48007,-0.3548 -4.66874,-1.32917 -0.93487,-0.76637 -1.25865,-1.3036 -1.48643,-1.62748 l 14.50883,-6.66837 z"
       id="path1294-2"
       inkscape:connector-curvature="0"
       inkscape:export-xdpi="90"
       inkscape:export-ydpi="90" />
  </g>
</svg>
